<svg width="220" height="39" fill="none" xmlns="http://www.w3.org/2000/svg"><path d="M69.538 1.531c0 .228-.081.975-1.152.975-.15.036-.645.71-.645 2.012v22.774c0 7.978-6.703 11.55-13.347 11.55-7.873 0-13.373-4.751-13.373-11.55V4.518c0-1.224-.324-2.012-.822-2.012a.978.978 0 01-.975-.975.95.95 0 01.975-.948h6.682a.952.952 0 01.975.948.974.974 0 01-.975.99c-.507 0-.846.81-.846 2.012v22.774c.13 5.44 3.9 8.968 9.628 8.968 6.236 0 9.598-4.622 9.598-8.968V4.518c0-.975-.222-2.012-.846-2.012a.978.978 0 01-.975-.975.949.949 0 01.975-.948h4.148a.95.95 0 01.975.948zm39.89 17.813a18.783 18.783 0 01-18.757 18.762H76.424a.975.975 0 01-.975-.975c0-.354.15-.947 1.152-.947.15-.037.642-.708.642-2.013V4.518c0-1.224-.32-2.012-.819-2.012a.975.975 0 010-1.95h14.247a18.798 18.798 0 0118.76 18.788zM82.252 35.626h8.419c7.387 0 13.398-7.304 13.398-16.284S98.07 3.035 90.671 3.035h-8.365l-.054 32.59zm68.192-16.13c0 10.749-8.428 19.495-18.788 19.495-10.359 0-18.763-8.746-18.763-19.496C112.893 8.746 121.312 0 131.656 0c10.345 0 18.788 8.746 18.788 19.495zm-31.829 0c0 9.702 5.606 17.014 13.041 17.014S144.7 29.213 144.7 19.495c0-9.717-5.606-17.014-13.044-17.014s-13.041 7.315-13.041 17.014zm101.38 17.662a.98.98 0 01-.321.702.976.976 0 01-.732.246h-6.898a.99.99 0 01-1.044-.855.482.482 0 010-.093.925.925 0 01.269-.701.933.933 0 01.7-.273h.132c.037-.15.053-.303.048-.456-.042-.33-2.322-5.699-5.399-13.74l-10.008.03-4.799 12.018c-.27.71-.405 1.068-.405 1.64l.042.52a1.062 1.062 0 011.128.851.546.546 0 010 .1.97.97 0 01-.661.902.96.96 0 01-.392.045h-4.286a.958.958 0 01-1.05-.948c0-.474.351-.95 1.134-.95.324 0 1.199-.768 1.826-2.298l12.579-32.9a.772.772 0 01.729-.467h1.161a.77.77 0 01.729.468l12.555 32.92c.6 1.467 1.499 2.288 1.85 2.288.762 0 1.122.504 1.122.951zm-13.848-17.671l-4.316-11.203-4.301 11.202h8.617zM14.667 3.036v13.428c1.56 1.845 4.334 2.25 9.274 2.364a.7.7 0 01.68.699v.066a.696.696 0 01-.68.695c-4.94.114-7.715.546-9.274 2.4v12.927h10.664a9.275 9.275 0 004.7-1.173c1.2-.825 1.365-1.58 1.365-1.58a.963.963 0 011.014-.816c.074 0 .148.012.219.035a.975.975 0 01.68.966c.003.04.003.08 0 .12l-.758 4.352a.699.699 0 01-.687.576H8.791a.978.978 0 01-.947-.999.615.615 0 01.036-.222 1.001 1.001 0 01.9-.752c.788 0 .872-1.39.872-1.986V23.273c-1.407-2.262-4.043-2.808-8.977-2.967a.695.695 0 01-.672-.75v-.105a.696.696 0 01.672-.641c4.928-.16 7.561-.67 8.968-2.913V4.518c0-1.31-.516-1.988-.672-2.012-1.002 0-1.148-.627-1.148-1a.699.699 0 01.033-.221A1.01 1.01 0 018.77.532h23.077a.696.696 0 01.687.576l.758 4.379a.788.788 0 010 .117.93.93 0 01-.806.954.96.96 0 01-1.122-.684s-.234-1.2-2.621-2.244c-.072-.033-.147-.06-.22-.09a10.989 10.989 0 00-3.206-.492zm-2.7 10.516c-.78 3.503-2.363 5.198-5.48 5.998 3.13.792 4.707 2.463 5.48 5.921.765-3.452 2.337-5.126 5.495-5.92-3.158-.804-4.739-2.505-5.506-6h.011zm172.46 23.744a.96.96 0 01-.974.975h-1.164c-3.626 0-4.904-.195-7.66-4.25l-9.046-13.197-4.46.084v13.404c0 1.218.252 2.03.759 2.03a.95.95 0 01.975.948.974.974 0 01-.975.975h-7.198a.979.979 0 01-.975-.975c0-.354.15-.948 1.155-.948.149-.035.641-.72.641-2.036V4.893c0-1.278-.345-2.1-.881-2.1a1.034 1.034 0 110-2.066h13.289c7.076 0 12.408 4.376 12.408 10.18 0 4.652-3.431 8.449-8.652 9.72l-.144.04 9.108 13.256c1.053 1.578 2.295 2.432 2.643 2.432h.177a.947.947 0 01.899.587.942.942 0 01.072.37l.003-.015zm-23.541-18.91h7.024c3.789 0 6.644-3.218 6.644-7.498s-2.855-7.514-6.644-7.514h-4.864c-1.395 0-2.16.54-2.16.72z" fill="url(#paint0_linear_6218_26278)"/><defs><linearGradient id="paint0_linear_6218_26278" x1="-29.681" x2="243.84" y1="25.78" y2="25.78" gradientTransform="translate(0 -6.284)" gradientUnits="userSpaceOnUse"><stop stop-color="#89592C" offset="0"/><stop stop-color="#AF865B" offset=".24"/><stop stop-color="#C69D6D" offset=".34"/><stop stop-color="#DEB480" offset=".45"/><stop stop-color="#DEB480" offset=".61"/><stop stop-color="#AF865B" offset=".82"/><stop stop-color="#A87E53" offset=".85"/><stop stop-color="#88582C" offset="1"/></linearGradient></defs></svg>