<svg class="icon-bag-full" width="23" height="26" viewBox="0 0 24 29" fill="#FFF" xmlns="http://www.w3.org/2000/svg">
  <path d="M21.3333 6.99967H18.6667C18.6667 3.31967 15.68 0.333008 12 0.333008C8.32 0.333008 5.33333 3.31967 5.33333 6.99967H2.66667C1.2 6.99967 0 8.19967 0 9.66634V25.6663C0 27.133 1.2 28.333 2.66667 28.333H21.3333C22.8 28.333 24 27.133 24 25.6663V9.66634C24 8.19967 22.8 6.99967 21.3333 6.99967ZM12 2.99967C14.2133 2.99967 16 4.78634 16 6.99967H8C8 4.78634 9.78667 2.99967 12 2.99967ZM21.3333 25.6663H2.66667V9.66634H21.3333V25.6663ZM12 14.9997C9.78667 14.9997 8 13.213 8 10.9997H5.33333C5.33333 14.6797 8.32 17.6663 12 17.6663C15.68 17.6663 18.6667 14.6797 18.6667 10.9997H16C16 13.213 14.2133 14.9997 12 14.9997Z" fill-rule="nonzero"></path>
</svg>